<?xml version="1.0" standalone="no"?>
<!DOCTYPE svg PUBLIC "-//W3C//DTD SVG 20010904//EN"
 "http://www.w3.org/TR/2001/REC-SVG-20010904/DTD/svg10.dtd">
<svg version="1.0" xmlns="http://www.w3.org/2000/svg"
 width="512.000000pt" height="512.000000pt" viewBox="0 0 512.000000 512.000000"
 preserveAspectRatio="xMidYMid meet">

<g transform="translate(0.000000,512.000000) scale(0.100000,-0.100000)"
fill="#000000" stroke="none">
<path d="M2505 5113 c-173 -24 -368 -108 -462 -201 -69 -68 -125 -169 -155
-279 -26 -98 -36 -389 -19 -568 19 -197 25 -500 12 -594 -14 -108 -29 -137
-148 -296 -324 -434 -322 -430 -505 -940 -27 -77 -72 -188 -100 -248 -61 -131
-76 -213 -56 -302 l14 -60 -46 -42 c-26 -23 -61 -68 -78 -101 -35 -65 -89
-120 -151 -151 -22 -12 -97 -36 -167 -55 -135 -37 -165 -53 -201 -106 -29 -42
-30 -110 -3 -208 29 -105 26 -162 -17 -299 -47 -149 -49 -200 -8 -243 59 -62
162 -98 372 -130 201 -31 254 -44 503 -130 271 -94 314 -107 407 -120 126 -17
224 16 296 102 20 24 43 50 50 59 28 33 399 78 642 79 224 0 520 -41 540 -75
87 -149 199 -214 350 -202 95 7 169 37 240 97 179 149 293 223 610 396 223
122 286 172 305 244 25 93 -11 155 -122 212 -93 48 -150 95 -184 154 -21 36
-28 64 -34 147 -10 115 -25 159 -80 233 l-38 50 19 85 c25 108 35 320 21 424
-14 103 -41 184 -106 320 -91 190 -265 466 -538 851 -194 275 -222 350 -238
639 -25 440 -36 529 -87 690 -101 323 -295 510 -583 561 -71 13 -189 16 -255
7z m374 -696 c153 -102 177 -352 46 -492 -40 -43 -43 -45 -73 -34 -35 12 -40
23 -18 36 44 25 72 136 51 205 -13 41 -54 86 -90 98 -48 16 -101 -10 -133 -65
-20 -34 -22 -51 -19 -112 2 -40 1 -73 -4 -73 -4 0 -28 9 -52 19 -43 19 -46 22
-57 77 -17 80 -7 155 29 229 34 68 59 96 117 125 57 30 147 24 203 -13z m-680
-31 c66 -35 131 -158 131 -250 0 -50 -12 -106 -22 -106 -5 0 -28 -13 -51 -29
l-42 -29 3 67 c3 54 -1 74 -21 111 -53 100 -147 98 -176 -5 -22 -82 24 -201
90 -229 l29 -12 -30 -29 c-26 -25 -33 -27 -54 -17 -34 15 -81 88 -101 157 -42
143 20 335 120 376 32 13 94 10 124 -5z m444 -529 c190 -73 237 -103 237 -148
0 -24 -8 -34 -42 -54 -24 -14 -97 -57 -163 -96 -207 -122 -251 -142 -310 -137
-53 5 -134 51 -220 127 -110 97 -111 125 -3 211 193 155 224 173 288 166 25
-2 121 -34 213 -69z m419 -412 c172 -333 414 -931 485 -1195 43 -164 44 -474
1 -649 l-11 -43 -51 5 c-62 7 -113 -9 -137 -43 -22 -30 -39 -211 -39 -414 l0
-131 -61 -68 c-77 -85 -170 -160 -275 -221 -103 -60 -197 -92 -321 -111 -121
-19 -395 -30 -483 -20 l-65 7 -105 121 c-57 66 -100 122 -95 124 112 39 159
146 109 243 -20 39 -126 137 -284 262 -151 120 -256 222 -282 273 -31 63 -43
131 -43 250 0 188 38 336 130 505 25 47 68 146 96 220 127 346 142 380 196
458 65 92 103 165 132 252 24 75 41 194 34 236 -5 26 2 22 73 -47 90 -86 179
-143 247 -158 72 -17 126 5 382 152 160 92 239 128 275 124 21 -2 35 -22 92
-132z m-1848 -1959 c76 -32 160 -130 271 -316 133 -222 234 -377 308 -468 97
-121 130 -189 131 -267 0 -39 -6 -73 -18 -98 -26 -52 -120 -144 -157 -152 -69
-15 -205 20 -459 119 -217 85 -188 77 -458 126 -128 23 -225 46 -245 57 -45
27 -47 72 -6 214 29 101 31 119 24 188 -4 42 -8 107 -9 145 -1 68 0 70 31 89
18 10 88 32 155 49 191 47 194 49 284 211 43 78 77 115 107 117 4 0 23 -6 41
-14z m2357 -156 c10 -123 58 -202 138 -229 49 -16 148 -14 212 5 118 35 192
93 253 197 16 26 32 44 37 41 22 -14 41 -73 49 -154 14 -148 58 -219 178 -286
126 -71 157 -117 109 -162 -13 -12 -116 -71 -229 -132 -261 -138 -293 -159
-418 -269 -204 -181 -318 -213 -415 -117 -83 84 -97 195 -51 415 47 223 58
337 50 532 -7 189 -4 225 24 232 50 14 57 6 63 -73z"/>
</g>
</svg>
